<svg xmlns="http://www.w3.org/2000/svg" width="43.067" height="39.229"><g fill="#010101"><path d="M39.603 39.229H3.465A3.47 3.47 0 010 35.762V8.639a3.47 3.47 0 013.465-3.466h11.749V2.501c0-.622.228-1.21.645-1.672.026-.035.056-.069.087-.101A2.494 2.494 0 0117.713 0h7.641a2.496 2.496 0 012.499 2.501v2.672h11.75a3.47 3.47 0 013.465 3.466v27.123a3.47 3.47 0 01-3.465 3.467zm-3.888-1.75h3.888a1.72 1.72 0 001.717-1.717V8.639a1.72 1.72 0 00-1.717-1.716h-3.888v12.553l2.266 1.312a.871.871 0 01.319 1.195l-2.641 4.559c.037.096.056.2.056.308v10.629zm-26.615 0h24.867v-8.013l-.358.618a.872.872 0 01-1.194.318l-5.787-3.35a.87.87 0 01-.406-.532.871.871 0 01.088-.664l4.69-8.1a.872.872 0 011.194-.318l1.772 1.025V6.923H9.1v30.556zM3.465 6.923c-.946 0-1.716.77-1.716 1.716v27.123c0 .947.77 1.717 1.716 1.717h3.886V6.923H3.465zm24.796 19.054l4.271 2.474 3.815-6.588-4.271-2.474-3.815 6.588zM16.962 5.173h9.143V2.501a.747.747 0 00-.751-.751h-7.641a.749.749 0 00-.479.171 1.204 1.204 0 01-.049.052.745.745 0 00-.223.528v2.672zm.413 21.156a.87.87 0 01-.367-.081l-5.89-2.721a.875.875 0 01-.427-1.161l1.943-4.207a.878.878 0 01.491-.455.895.895 0 01.669.027l5.891 2.721a.877.877 0 01.427 1.161l-1.944 4.207a.872.872 0 01-.793.509zm-4.729-4.022l4.302 1.986 1.21-2.618-4.302-1.988-1.21 2.62z"/><path d="M25.455 19.386c-2.649 0-4.726-1.613-4.726-3.673 0-2.059 2.076-3.672 4.726-3.672 2.651 0 4.728 1.613 4.728 3.672s-2.077 3.673-4.728 3.673zm0-5.595c-1.613 0-2.978.88-2.978 1.922 0 1.043 1.364 1.923 2.978 1.923s2.979-.88 2.979-1.923c.001-1.042-1.365-1.922-2.979-1.922z"/></g></svg>